<?xml version="1.0" encoding="UTF-8" standalone="no"?>
<svg
   xmlns:dc="http://purl.org/dc/elements/1.1/"
   xmlns:cc="http://creativecommons.org/ns#"
   xmlns:rdf="http://www.w3.org/1999/02/22-rdf-syntax-ns#"
   xmlns:svg="http://www.w3.org/2000/svg"
   xmlns="http://www.w3.org/2000/svg"
   xmlns:xlink="http://www.w3.org/1999/xlink"
   xmlns:sodipodi="http://sodipodi.sourceforge.net/DTD/sodipodi-0.dtd"
   xmlns:inkscape="http://www.inkscape.org/namespaces/inkscape"
   inkscape:version="1.0 (4035a4fb49, 2020-05-01)"
   inkscape:export-ydpi="16"
   inkscape:export-xdpi="16"
   inkscape:export-filename="/home/e/code/preserve/static/logo-32.png"
   sodipodi:docname="logo.svg"
   width="192.0px"
   height="192.0px"
   viewBox="0 0 192.0 192.0"
   version="1.1"
   id="SVGRoot">
  <defs
     id="defs36">
    <rect
       id="rect927"
       height="50"
       width="35"
       y="50"
       x="60" />
    <linearGradient
       id="linearGradient917"
       inkscape:collect="always">
      <stop
         id="stop913"
         offset="0"
         style="stop-color:#123456;stop-opacity:1;" />
      <stop
         style="stop-color:#184674;stop-opacity:1"
         offset="0.8125"
         id="stop921" />
      <stop
         id="stop923"
         offset="1"
         style="stop-color:#123456;stop-opacity:0.18823529;" />
      <stop
         id="stop915"
         offset="1"
         style="stop-color:#123456;stop-opacity:0;" />
    </linearGradient>
    <linearGradient
       gradientUnits="userSpaceOnUse"
       y2="195"
       x2="195"
       y1="35"
       x1="25"
       id="linearGradient919"
       xlink:href="#linearGradient917"
       inkscape:collect="always" />
    <clipPath
       id="clipPath941"
       clipPathUnits="userSpaceOnUse">
      <circle
         style="fill:url(#linearGradient945);fill-opacity:1"
         id="circle943"
         cx="96"
         cy="96"
         r="96" />
    </clipPath>
    <linearGradient
       y2="195"
       x2="195"
       y1="35"
       x1="25"
       gradientUnits="userSpaceOnUse"
       id="linearGradient945"
       xlink:href="#linearGradient917"
       inkscape:collect="always" />
    <linearGradient
       gradientTransform="rotate(28,96,96)"
       y2="195"
       x2="195"
       y1="35"
       x1="25"
       gradientUnits="userSpaceOnUse"
       id="linearGradient995"
       xlink:href="#linearGradient917"
       inkscape:collect="always" />
  </defs>
  <sodipodi:namedview
     inkscape:snap-object-midpoints="true"
     inkscape:window-maximized="1"
     inkscape:window-y="26"
     inkscape:window-x="1920"
     inkscape:window-height="1385"
     inkscape:window-width="2556"
     showgrid="true"
     inkscape:document-rotation="0"
     inkscape:current-layer="layer1"
     inkscape:document-units="px"
     inkscape:cy="120.41074"
     inkscape:cx="122.69047"
     inkscape:zoom="3.959798"
     inkscape:pageshadow="2"
     inkscape:pageopacity="0.0"
     borderopacity="1.0"
     bordercolor="#666666"
     pagecolor="#ffffff"
     id="base">
    <inkscape:grid
       type="xygrid"
       id="grid45" />
  </sodipodi:namedview>
  <metadata
     id="metadata39">
    <rdf:RDF>
      <cc:Work
         rdf:about="">
        <dc:format>image/svg+xml</dc:format>
        <dc:type
           rdf:resource="http://purl.org/dc/dcmitype/StillImage" />
      </cc:Work>
    </rdf:RDF>
  </metadata>
  <g
     id="layer1"
     inkscape:groupmode="layer"
     inkscape:label="Layer 1">
    <text
       style="fill:black;fill-opacity:1;stroke:none;font-family:'Fira Sans';font-style:normal;font-weight:normal;font-size:40px;line-height:1.25;letter-spacing:0px;word-spacing:0px;white-space:pre;shape-inside:url(#rect927);-inkscape-font-specification:'Fira Sans';font-stretch:normal;font-variant:normal;"
       id="text925"
       xml:space="preserve" />
    <path
       d="M 95.929688 0 A 96 96 0 0 0 11.236328 50.931641 A 96 96 0 0 0 50.931641 180.76367 A 96 96 0 0 0 180.76367 141.06836 A 96 96 0 0 0 141.06836 11.236328 A 96 96 0 0 0 95.929688 0 z M 95.886719 80 A 15 15 0 0 1 96 80 A 15 15 0 0 1 111 95 A 15 15 0 0 1 96 110 A 15 15 0 0 1 81 95 A 15 15 0 0 1 95.886719 80 z "
       style="fill:url(#linearGradient995);fill-opacity:1"
       id="path879" />
    <path
       d="M 95.777344 66 A 30 30 0 0 0 69.511719 81.916016 A 30 30 0 0 0 81.916016 122.48828 A 30 30 0 0 0 122.48828 110.08398 A 30 30 0 0 0 110.08398 69.511719 A 30 30 0 0 0 95.777344 66 z M 95.886719 80 A 15 15 0 0 1 96 80 A 15 15 0 0 1 111 95 A 15 15 0 0 1 96 110 A 15 15 0 0 1 81 95 A 15 15 0 0 1 95.886719 80 z "
       style="font-variation-settings:normal;vector-effect:none;fill:#020202;fill-opacity:1;fill-rule:evenodd;stroke-width:0.960769;stroke-linecap:butt;stroke-linejoin:miter;stroke-miterlimit:4;stroke-dasharray:none;stroke-dashoffset:0;stroke-opacity:1;stop-color:#000000"
       id="path935" />
    <path
       transform="rotate(28,96,96)"
       clip-path="url(#clipPath941)"
       y="95"
       x="66"
       height="96"
       width="15"
       id="rect937"
       style="fill:#8e8e8e;fill-opacity:1;stroke-width:1.09545"
       sodipodi:type="rect"
       d="m 66,95 h 15 v 96 H 66 Z" />
    <path
       id="path2965"
       d="m 94.329731,109.87527 c -2.829941,-0.35387 -5.599372,-1.53102 -7.786174,-3.30951 -0.868032,-0.70595 -2.078867,-2.00763 -2.770077,-2.9779 -1.956292,-2.74611 -2.969292,-6.416201 -2.677262,-9.699721 0.171076,-1.92354 0.267004,-2.234948 1.26613,-4.110203 l 0.893191,-1.676427 -0.19164,-0.145212 -0.19164,-0.145212 0.292916,-0.479788 c 1.855315,-3.038948 4.639926,-5.305377 7.92196,-6.447778 3.500697,-1.218513 7.26281,-1.09825 10.700615,0.342064 4.58226,1.919794 7.89528,6.000867 8.9018,10.965476 0.17407,0.858627 0.20192,1.264385 0.19732,2.874736 -0.006,2.100449 -0.13243,2.927504 -0.71454,4.674259 -1.4711,4.414416 -5.01335,7.956636 -9.42727,9.427196 -1.629294,0.54282 -2.511114,0.68661 -4.406401,0.71853 -0.933036,0.0157 -1.837053,0.011 -2.008928,-0.0105 z"
       style="fill:#ffffff;fill-opacity:1;stroke-width:0.0892857" />
  </g>
</svg>
